<svg width="1024" height="1024" viewBox="0 0 1024 1024" fill="none" xmlns="http://www.w3.org/2000/svg">
<path fill-rule="evenodd" clip-rule="evenodd" d="M1002.83 91L1012 101.092L20.2569 933.202L12 923.11C194.578 767.919 194.573 662.689 194.569 545.051V543.294C194.569 541.106 194.563 538.842 194.557 536.506C194.394 473.235 194.097 357.295 305.578 264.394C415.505 173.236 526.303 192.644 590.477 203.886L595.486 204.761L596.347 204.915C714.347 225.955 819.785 244.755 1002.83 91ZM356.037 324.945C272.55 394.67 247.78 508.431 289.982 603.844L331.263 569.154C306.495 498.53 326.39 416.497 385.394 365.312C446.502 312.731 532.374 307.478 598.683 344.438L640.44 309.349C554.202 251.55 438.605 256.138 356.037 324.945ZM587.832 353.556L342.359 559.831C322.06 494.651 341.548 420.56 393.651 375.404C449.053 327.619 526.933 322.178 587.832 353.556Z" fill="black"/>
<path d="M785.394 359.807C854.202 487.33 824.844 652.468 710.165 748.798C595.486 845.128 427.596 845.128 313.835 755.22L374.385 704.761C460.624 762.56 577.138 757.972 659.706 688.248C742.275 618.523 767.046 505.679 724.844 410.266L785.394 359.807Z" fill="black"/>
<path d="M619.339 639.624C673.468 594.67 692.734 519.44 672.55 454.303L682.642 446.046C708.33 516.688 688.147 599.257 626.679 650.633C566.128 701.092 482.642 706.596 416.587 668.982L426.679 660.725C487.229 691.917 564.294 685.495 619.339 639.624Z" fill="black"/>
</svg>
